<?xml version="1.0" encoding="utf-8"?>
<!-- Generator: Adobe Illustrator 26.5.0, SVG Export Plug-In . SVG Version: 6.00 Build 0)  -->
<svg version="1.1" id="レイヤー_1" xmlns="http://www.w3.org/2000/svg" xmlns:xlink="http://www.w3.org/1999/xlink" x="0px"
	 y="0px" viewBox="0 0 48 48" style="enable-background:new 0 0 48 48;" xml:space="preserve">
<style type="text/css">
	.st0{fill:url(#SVGID_1_);}
	.st1{fill:url(#SVGID_00000164511333525799111800000012722824552105096633_);}
	.st2{fill:url(#SVGID_00000109710786338242411480000011579597251589984442_);}
	.st3{fill:url(#SVGID_00000009551139461043190450000006641057545253027767_);}
</style>
<g>
	<linearGradient id="SVGID_1_" gradientUnits="userSpaceOnUse" x1="2.6665" y1="24" x2="45.3335" y2="24">
		<stop  offset="0" style="stop-color:#CD1CFA"/>
		<stop  offset="0.1119" style="stop-color:#C421F7"/>
		<stop  offset="0.2946" style="stop-color:#AC2FEF"/>
		<stop  offset="0.5252" style="stop-color:#8447E1"/>
		<stop  offset="0.7919" style="stop-color:#4D66CE"/>
		<stop  offset="1" style="stop-color:#1E82BE"/>
	</linearGradient>
	<path class="st0" d="M24,0C12.2,0,2.7,9.6,2.7,21.3l0,0V48h10.5v-8.3c3.2,1.9,6.9,3,10.9,3c11.8,0,21.3-9.6,21.3-21.3S35.8,0,24,0z
		 M24,32.2c-6,0-10.9-4.9-10.9-10.9c0-6,4.9-10.9,10.9-10.9c6,0,10.9,4.9,10.9,10.9C34.9,27.3,30,32.2,24,32.2z"/>
	<g>
		
			<linearGradient id="SVGID_00000048467632971958492860000008921563744235615412_" gradientUnits="userSpaceOnUse" x1="13.1462" y1="21.3335" x2="13.1462" y2="21.3335">
			<stop  offset="0" style="stop-color:#811FAE"/>
			<stop  offset="0.125" style="stop-color:#902ACB"/>
			<stop  offset="0.25" style="stop-color:#9333D9"/>
			<stop  offset="0.375" style="stop-color:#8E3BDE"/>
			<stop  offset="0.5" style="stop-color:#8643DE"/>
			<stop  offset="0.625" style="stop-color:#7C4BDE"/>
			<stop  offset="0.75" style="stop-color:#7052D9"/>
			<stop  offset="0.875" style="stop-color:#625AD5"/>
			<stop  offset="1" style="stop-color:#5562D1"/>
		</linearGradient>
		<polygon style="fill:url(#SVGID_00000048467632971958492860000008921563744235615412_);" points="13.1,21.3 13.1,21.3 13.1,21.3 
					"/>
		
			<linearGradient id="SVGID_00000106837091422487946720000012131216730967750834_" gradientUnits="userSpaceOnUse" x1="13.1462" y1="32.0002" x2="34.8538" y2="32.0002">
			<stop  offset="0" style="stop-color:#811FAE"/>
			<stop  offset="0.125" style="stop-color:#902ACB"/>
			<stop  offset="0.25" style="stop-color:#9333D9"/>
			<stop  offset="0.375" style="stop-color:#8E3BDE"/>
			<stop  offset="0.5" style="stop-color:#8643DE"/>
			<stop  offset="0.625" style="stop-color:#7C4BDE"/>
			<stop  offset="0.75" style="stop-color:#7052D9"/>
			<stop  offset="0.875" style="stop-color:#625AD5"/>
			<stop  offset="1" style="stop-color:#5562D1"/>
		</linearGradient>
		<path style="fill:url(#SVGID_00000106837091422487946720000012131216730967750834_);" d="M34.9,21.3c0,6-4.9,10.9-10.9,10.9
			c-6,0-10.9-4.9-10.9-10.9v18.4c3.2,1.9,6.9,3,10.9,3c4,0,7.7-1.1,10.9-3V21.3z"/>
		
			<linearGradient id="SVGID_00000069381196782143477410000007725793117034350517_" gradientUnits="userSpaceOnUse" x1="34.8538" y1="21.3335" x2="34.8538" y2="21.3335">
			<stop  offset="0" style="stop-color:#811FAE"/>
			<stop  offset="0.125" style="stop-color:#902ACB"/>
			<stop  offset="0.25" style="stop-color:#9333D9"/>
			<stop  offset="0.375" style="stop-color:#8E3BDE"/>
			<stop  offset="0.5" style="stop-color:#8643DE"/>
			<stop  offset="0.625" style="stop-color:#7C4BDE"/>
			<stop  offset="0.75" style="stop-color:#7052D9"/>
			<stop  offset="0.875" style="stop-color:#625AD5"/>
			<stop  offset="1" style="stop-color:#5562D1"/>
		</linearGradient>
		<polygon style="fill:url(#SVGID_00000069381196782143477410000007725793117034350517_);" points="34.9,21.3 34.9,21.3 34.9,21.3 
					"/>
	</g>
</g>
</svg>
